<svg width="270" height="48" viewBox="0 0 270 48" fill="none" xmlns="http://www.w3.org/2000/svg">
<path d="M40.0116 28.766C40.9592 27.2515 41.8224 25.4282 42.6012 23.2962C43.7137 20.2503 44.1626 17.4013 43.9479 14.749C43.7332 12.0967 42.9158 9.83439 41.4957 7.962C40.0896 6.05153 38.182 4.67389 35.7729 3.82906C33.325 2.97061 31.0417 2.9215 28.9231 3.68175C26.7656 4.42837 24.8034 5.78035 23.0364 7.73769C21.9882 6.16748 20.7399 4.78483 19.2916 3.58973C17.8433 2.39464 16.2838 1.50413 14.613 0.918199C11.388 -0.21278 8.57032 -0.298958 6.16004 0.659665C3.71091 1.60466 1.92313 3.61911 0.796711 6.70301C-0.287988 9.67269 -0.265097 12.7301 0.865382 15.8754C1.99586 19.0206 4.11185 22.1678 7.21333 25.3171C10.7279 28.4913 21.3216 35.8718 35.5795 40L36.8624 36.4878L29.4187 34.0062C23.5682 31.7827 18.841 29.2444 15.2368 26.3914C11.6077 23.4866 9.13895 20.6451 7.83055 17.867C6.4972 15.0372 6.19905 12.6133 6.93609 10.5955C7.36719 9.41523 8.02978 8.68123 8.92387 8.39348C9.83187 8.06766 11.0435 8.17047 12.5589 8.70189C13.7246 9.11068 14.9318 9.70582 16.1805 10.4873C17.4042 11.2171 18.5279 12.0407 19.5517 12.9581C18.9263 14.0702 18.3077 15.4639 17.6958 17.1391C16.9309 19.2331 16.7798 21.0269 17.2424 22.5206C17.68 23.9625 18.6371 24.9424 20.1136 25.4602C21.3181 25.8826 22.4231 25.7977 23.4284 25.2053C24.3949 24.5994 25.1354 23.592 25.6499 22.1834C26.6234 19.5183 26.6185 16.5315 25.6352 13.2232C26.8046 12.3018 28.0265 11.6566 29.301 11.2875C30.5366 10.9048 31.7566 10.9246 32.9612 11.347C34.6708 11.9466 35.8138 13.0776 36.3901 14.74C36.9803 16.3643 36.8025 18.4709 35.8569 21.0598C35.2728 22.6589 34.5959 24.0321 33.8262 25.1795C33.0175 26.3133 31.9993 27.4809 30.7715 28.6824L36.6274 32.9909C37.9747 31.7024 39.1027 30.2941 40.0116 28.766Z" fill="#FFDEBE"/>
<path d="M220.398 37.672C217.998 37.672 215.998 37.24 214.398 36.376C212.83 35.48 211.614 33.976 210.75 31.864C209.886 29.72 209.454 26.824 209.454 23.176V17.56L204.174 17.272V12.184L209.454 12.472V7.04803H215.262V12.568H235.846C239.078 12.568 242.87 12.44 247.222 12.184V17.272C242.87 17.528 239.078 17.656 235.846 17.656H215.262V23.224C215.262 26.68 215.694 29.144 216.558 30.616C217.422 32.088 218.782 32.824 220.638 32.824C221.982 32.824 223.022 32.456 223.758 31.72C224.494 30.952 224.862 29.944 224.862 28.696C224.862 26.264 223.598 24.136 221.07 22.312L225.006 19.096C226.83 20.44 228.238 21.944 229.23 23.608C230.254 25.272 230.766 26.984 230.766 28.744C230.766 31.464 229.838 33.64 227.982 35.272C226.158 36.872 223.63 37.672 220.398 37.672Z" fill="#FFDEBE"/>
<path d="M238.611 36.376C240.211 37.24 242.211 37.672 244.611 37.672C247.843 37.672 250.371 36.872 252.195 35.272C254.051 33.64 254.979 31.464 254.979 28.744C254.979 26.984 254.467 25.272 253.443 23.608C252.451 21.944 251.043 20.44 249.219 19.096L245.283 22.312C247.811 24.136 249.075 26.264 249.075 28.696C249.075 29.944 248.707 30.952 247.971 31.72C247.235 32.456 246.195 32.824 244.851 32.824C242.995 32.824 241.635 32.088 240.771 30.616C239.907 29.144 239.475 26.68 239.475 23.224V17.656V12.568V7.04803H233.667V12.472V17.56V23.176C233.667 26.824 234.099 29.72 234.963 31.864C235.827 33.976 237.043 35.48 238.611 36.376Z" fill="#FFDEBE"/>
<path d="M197.133 37.6721C194.637 37.6721 192.813 36.9201 191.661 35.4161C190.509 33.8801 189.933 31.4961 189.933 28.2641C189.933 26.2481 190.125 23.9761 190.509 21.4481C190.893 18.9201 191.533 15.8321 192.429 12.1841H198.333C197.469 15.7681 196.829 18.8401 196.413 21.4001C196.029 23.9281 195.837 26.1841 195.837 28.1681C195.837 29.8641 195.933 31.0641 196.125 31.7681C196.349 32.4721 196.749 32.8241 197.325 32.8241C197.901 32.8241 198.301 32.5841 198.525 32.1041C198.781 31.5921 198.909 30.7601 198.909 29.6081C198.909 28.5201 198.797 27.5121 198.573 26.5841C198.349 25.6561 197.997 24.6481 197.517 23.5601L202.317 21.8321C203.885 24.2961 204.669 26.8721 204.669 29.5601C204.669 32.1521 203.981 34.1521 202.605 35.5601C201.229 36.9681 199.405 37.6721 197.133 37.6721ZM196.125 9.06406C195.101 9.06406 194.221 8.74406 193.485 8.10406C192.781 7.46406 192.429 6.66406 192.429 5.70406C192.429 4.77606 192.781 3.99206 193.485 3.35206C194.221 2.71206 195.101 2.39206 196.125 2.39206C197.213 2.39206 198.109 2.71206 198.813 3.35206C199.549 3.99206 199.917 4.77606 199.917 5.70406C199.917 6.66406 199.549 7.46406 198.813 8.10406C198.109 8.74406 197.213 9.06406 196.125 9.06406Z" fill="#FFDEBE"/>
<path d="M163.463 47.272C161.319 47.272 159.655 46.648 158.471 45.4C157.287 44.184 156.695 42.264 156.695 39.64C156.695 36.376 157.367 33.016 158.711 29.56C160.087 26.104 161.895 22.952 164.135 20.104C163.559 17.352 162.919 14.712 162.215 12.184H167.927L168.599 15.544C170.135 14.264 171.719 13.272 173.351 12.568C175.015 11.864 176.631 11.512 178.199 11.512C181.399 11.512 183.959 12.632 185.879 14.872C187.799 17.08 188.759 20.216 188.759 24.28C188.759 26.872 188.263 29.192 187.271 31.24C186.279 33.256 184.903 34.84 183.143 35.992C181.415 37.112 179.463 37.672 177.287 37.672C176.327 37.672 175.367 37.544 174.407 37.288C173.447 37.064 172.663 36.792 172.055 36.472L173.159 31.768C174.503 32.472 175.783 32.824 176.999 32.824C178.823 32.824 180.247 32.072 181.271 30.568C182.327 29.032 182.855 26.952 182.855 24.328C182.855 21.8 182.407 19.848 181.511 18.472C180.647 17.064 179.319 16.36 177.527 16.36C176.215 16.36 174.871 16.728 173.495 17.464C172.119 18.2 170.791 19.224 169.511 20.536C170.375 25.656 170.807 30.216 170.807 34.216C170.807 38.664 170.231 41.944 169.079 44.056C167.959 46.2 166.087 47.272 163.463 47.272ZM161.783 39.64C161.783 41.496 162.343 42.424 163.463 42.424C164.295 42.424 164.871 41.816 165.191 40.6C165.543 39.416 165.719 37.32 165.719 34.312C165.719 31.56 165.543 28.952 165.191 26.488C164.135 28.536 163.303 30.696 162.695 32.968C162.087 35.208 161.783 37.432 161.783 39.64Z" fill="#FFDEBE"/>
<path d="M146.972 37.6721C145.276 37.6721 143.788 37.1281 142.508 36.0401C141.228 34.952 140.236 33.4641 139.532 31.576C138.86 29.688 138.524 27.592 138.524 25.288C138.524 21.16 138.924 17.352 139.724 13.864C140.556 10.376 141.82 7.57605 143.516 5.46405C145.244 3.32005 147.404 2.24805 149.996 2.24805C152.236 2.24805 154.076 2.87205 155.516 4.12005C156.956 5.36805 157.676 7.12805 157.676 9.40005C157.676 12.952 156.54 16.584 154.268 20.296C151.996 24.008 148.908 27.304 145.004 30.184C145.58 31.944 146.364 32.824 147.356 32.824C149.148 32.824 150.94 31.208 152.732 27.976L156.284 31C154.972 33.272 153.548 34.952 152.012 36.0401C150.508 37.1281 148.828 37.6721 146.972 37.6721ZM144.38 24.232C146.748 21.992 148.572 19.576 149.852 16.984C151.132 14.36 151.772 11.88 151.772 9.54405C151.772 8.71205 151.596 8.10405 151.244 7.72005C150.892 7.30405 150.412 7.09605 149.804 7.09605C148.812 7.09605 147.9 7.89605 147.068 9.49605C146.268 11.096 145.628 13.224 145.148 15.88C144.668 18.504 144.412 21.288 144.38 24.232Z" fill="#FFDEBE"/>
<path d="M124.972 37.6721C123.276 37.6721 121.788 37.1281 120.508 36.0401C119.228 34.952 118.236 33.4641 117.532 31.576C116.86 29.688 116.524 27.592 116.524 25.288C116.524 21.16 116.924 17.352 117.724 13.864C118.556 10.376 119.82 7.57605 121.516 5.46405C123.244 3.32005 125.404 2.24805 127.996 2.24805C130.236 2.24805 132.076 2.87205 133.516 4.12005C134.956 5.36805 135.676 7.12805 135.676 9.40005C135.676 12.952 134.54 16.584 132.268 20.296C129.996 24.008 126.908 27.304 123.004 30.184C123.58 31.944 124.364 32.824 125.356 32.824C127.148 32.824 128.94 31.208 130.732 27.976L134.284 31C132.972 33.272 131.548 34.952 130.012 36.0401C128.508 37.1281 126.828 37.6721 124.972 37.6721ZM122.38 24.232C124.748 21.992 126.572 19.576 127.852 16.984C129.132 14.36 129.772 11.88 129.772 9.54405C129.772 8.71205 129.596 8.10405 129.244 7.72005C128.892 7.30405 128.412 7.09605 127.804 7.09605C126.812 7.09605 125.9 7.89605 125.068 9.49605C124.268 11.096 123.628 13.224 123.148 15.88C122.668 18.504 122.412 21.288 122.38 24.232Z" fill="#FFDEBE"/>
<path d="M95.4667 37.6721C92.4907 37.6721 90.2827 37.0481 88.8427 35.8001C87.4027 34.5201 86.6827 32.6961 86.6827 30.3281C86.6827 28.0241 87.5307 26.2321 89.2267 24.9521C90.9227 23.6401 93.3387 22.9841 96.4747 22.9841C99.8027 22.9841 102.715 23.6081 105.211 24.8561C105.339 24.3121 105.403 23.6881 105.403 22.9841C105.403 20.8401 104.811 19.2081 103.627 18.0881C102.443 16.9361 100.651 16.3601 98.2507 16.3601C96.5867 16.3601 95.3067 16.7281 94.4107 17.4641C93.5147 18.2001 93.0667 19.1761 93.0667 20.3921C93.0667 20.5841 93.0987 20.8721 93.1627 21.2561L87.9307 21.9281C87.8347 21.3521 87.7867 20.7761 87.7867 20.2001C87.7867 17.5121 88.7467 15.4001 90.6667 13.8641C92.5867 12.2961 95.2427 11.5121 98.6347 11.5121C102.699 11.5121 105.819 12.4881 107.995 14.4401C110.203 16.3601 111.307 19.1601 111.307 22.8401C111.307 24.7281 110.859 26.6001 109.963 28.4561C111.723 30.5361 113.003 33.0641 113.803 36.0401L109.099 37.6721C108.651 35.9121 107.931 34.2641 106.939 32.7281C105.403 34.2641 103.643 35.4801 101.659 36.3761C99.6747 37.2401 97.6107 37.6721 95.4667 37.6721ZM92.5867 30.2801C92.5867 31.0481 92.8587 31.6721 93.4027 32.1521C93.9787 32.6001 94.7947 32.8241 95.8507 32.8241C97.3867 32.8241 98.7947 32.5041 100.075 31.8641C101.355 31.2241 102.411 30.3441 103.243 29.2241C101.227 28.0721 98.9227 27.4961 96.3307 27.4961C95.0827 27.4961 94.1387 27.7521 93.4987 28.2641C92.8907 28.7441 92.5867 29.4161 92.5867 30.2801Z" fill="#FFDEBE"/>
<path d="M73.0759 37.6721C71.7319 37.6721 70.4199 37.4481 69.1399 37C67.8919 36.584 66.7719 36.056 65.7799 35.416L67.6039 31.0961C69.4599 32.2481 71.2519 32.824 72.9799 32.824C74.2599 32.824 75.3959 32.4081 76.3879 31.576C77.3799 30.712 78.1639 29.48 78.7399 27.88C79.3159 26.248 79.6039 24.3601 79.6039 22.216C79.6039 20.264 79.2519 18.808 78.5479 17.848C77.8439 16.856 76.8519 16.36 75.5719 16.36C73.9719 16.36 72.3559 17.224 70.7239 18.952C69.0919 20.68 67.6519 23.112 66.4039 26.248C65.1559 29.384 64.3079 32.9681 63.8599 37H58.0999C57.9399 34.2481 57.8599 31.288 57.8599 28.12C57.8599 20.536 58.5959 12.296 60.0679 3.40005L65.9239 2.24805C64.6759 10.024 63.9559 17.016 63.7639 23.224C65.0759 19.544 66.8199 16.68 68.9959 14.632C71.2039 12.552 73.6999 11.512 76.4839 11.512C79.2999 11.512 81.5079 12.472 83.1079 14.392C84.7079 16.312 85.5079 18.92 85.5079 22.216C85.5079 25.064 84.9479 27.672 83.8279 30.04C82.7399 32.408 81.2359 34.28 79.3159 35.656C77.4279 37 75.3479 37.6721 73.0759 37.6721Z" fill="#FFDEBE"/>
</svg>
