<svg width="28" height="29" viewBox="0 0 28 29" fill="none" xmlns="http://www.w3.org/2000/svg">
<path fill-rule="evenodd" clip-rule="evenodd" d="M26.5417 12.8594C26.5417 6.79274 21.4118 1.93945 15.1667 1.93945C9.66816 1.93945 5.03417 5.69612 4.00517 10.7478C3.89083 11.2961 3.83363 11.5761 3.9993 11.7161C4.16475 11.8443 4.45476 11.7164 5.03543 11.4604L5.03768 11.4594C6.17868 10.9694 7.43866 10.6895 8.74999 10.6895C13.6302 10.6895 17.7917 14.5044 17.7917 19.4511C17.7917 20.7577 17.5047 21.9711 16.9937 23.0677C16.8723 23.3244 17.0788 23.6278 17.36 23.5811C17.4354 23.567 17.5023 23.554 17.562 23.5423C17.6998 23.5154 17.7997 23.4959 17.8803 23.4878C17.9095 23.4761 17.9351 23.4761 17.9573 23.4878H17.9877C18.0017 23.4936 18.0174 23.5024 18.0385 23.5141C18.0594 23.5257 18.0857 23.5403 18.1206 23.5578C18.1768 23.5822 18.2418 23.6162 18.3188 23.6564C18.3891 23.6931 18.4693 23.7349 18.5617 23.7795C20.083 24.5961 21.8563 24.8762 23.5678 24.5612C23.8711 24.5028 24.1232 24.2927 24.2293 24.0011C24.3355 23.7094 24.2818 23.3944 24.087 23.1494C23.6052 22.5544 23.2738 21.8428 23.1268 21.0728C23.093 20.8978 23.1665 20.6295 23.4348 20.3612C25.3563 18.4128 26.5417 15.7644 26.5417 12.8594ZM8.74999 12.4395C12.74 12.4395 16.0417 15.5427 16.0417 19.4511C16.0417 23.3594 12.74 26.4628 8.74999 26.4628C8.27982 26.4628 7.80965 26.4277 7.34765 26.3344C7.28291 26.3213 7.23026 26.3119 7.18663 26.3042C7.15244 26.298 7.12378 26.2929 7.09917 26.2878C7.03967 26.3228 6.958 26.3695 6.83433 26.4278C5.83917 26.9645 4.67715 27.1511 3.55365 26.9411C3.25032 26.8828 2.99833 26.6728 2.89216 26.3811C2.786 26.0895 2.83963 25.7628 3.03446 25.5295C3.29113 25.2145 3.46968 24.8295 3.55018 24.4211C3.54936 24.4129 3.54852 24.4105 3.54688 24.4057C3.54618 24.4037 3.54535 24.4012 3.54431 24.3978C3.53264 24.3745 3.50464 24.3278 3.45448 24.2695C2.22248 23.0212 1.45832 21.3294 1.45832 19.4511C1.45832 15.5427 4.75999 12.4395 8.74999 12.4395Z" fill="#A9A9B2"/>
</svg>
