<svg width="24" height="25" viewBox="0 0 24 25" fill="none" xmlns="http://www.w3.org/2000/svg">
<path fill-rule="evenodd" clip-rule="evenodd" d="M3.5767 2.19449C4.88361 1.7421 6.62427 1.48047 8.5 1.48047C10.3757 1.48047 12.1164 1.7421 13.4233 2.19449C14.072 2.41904 14.6685 2.70918 15.1225 3.08079C15.5692 3.44637 16 3.99823 16 4.73047V6.48622C16 6.66611 16 6.75605 15.9642 6.82261C15.9359 6.87515 15.8947 6.91639 15.8421 6.94466C15.7756 6.98047 15.6837 6.98047 15.5 6.98047C13.5031 6.98047 11.5889 7.25679 10.086 7.77701C9.34635 8.03306 8.56918 8.3948 7.92746 8.91998C7.53926 9.23768 7.07625 9.72433 6.78513 10.3809C6.72098 10.5256 6.68891 10.5979 6.63388 10.6305C6.57884 10.6631 6.50741 10.657 6.36456 10.6449C4.6083 10.4962 3.12662 10.1535 2.01286 9.61722C1.79088 9.51034 1.58514 9.39687 1.39569 9.27665C1.21436 9.16159 1.1237 9.10405 1.06185 8.99155C1 8.87905 1 8.75683 1 8.51239V4.73051C1 3.99827 1.43077 3.44637 1.87746 3.08079C2.33153 2.70918 2.928 2.41904 3.5767 2.19449ZM3.14414 4.62854C3.34791 4.46178 3.70334 4.26709 4.23092 4.08446C5.27654 3.72252 6.78588 3.48047 8.5 3.48047C10.2141 3.48047 11.7235 3.72252 12.7691 4.08446C13.2967 4.26709 13.6521 4.46178 13.8559 4.62854C13.9217 4.68242 13.9217 4.77852 13.8559 4.8324C13.6521 4.99916 13.2967 5.19385 12.7691 5.37647C11.7235 5.73842 10.2141 5.98047 8.5 5.98047C6.78588 5.98047 5.27654 5.73842 4.23092 5.37647C3.70334 5.19385 3.34791 4.99916 3.14414 4.8324C3.07831 4.77852 3.07831 4.68242 3.14414 4.62854ZM6.5 12.532C6.5 12.3564 6.5 12.2686 6.44759 12.2113C6.39518 12.154 6.30663 12.146 6.12953 12.1302H6.12952C4.29374 11.9659 2.66 11.5936 1.36214 10.9687C1.29931 10.9385 1.2679 10.9233 1.24756 10.9184C1.13472 10.8907 1.0284 10.9575 1.00434 11.0712C1 11.0917 1 11.1244 1 11.1899V14.3109C1 14.5758 1 14.7083 1.07203 14.8275C1.14405 14.9467 1.24658 15.0006 1.45164 15.1084C1.61214 15.1928 1.78497 15.2728 1.97047 15.3484C3.0317 15.7808 4.42548 16.0351 6.07777 16.1521C6.27437 16.166 6.37267 16.173 6.43633 16.1137C6.5 16.0544 6.5 15.9549 6.5 15.7559V12.532ZM6.44597 17.7342C6.5 17.7919 6.5 17.8814 6.5 18.0606V20.2807C6.5 20.8161 6.62477 21.2838 6.81325 21.6845C6.98834 22.0567 7.07589 22.2428 7.00865 22.3379C6.9414 22.433 6.75899 22.4149 6.39416 22.3785C5.34972 22.2743 4.39924 22.0934 3.60972 21.8505C2.96813 21.6531 2.3761 21.3976 1.92253 21.0677C1.49085 20.7536 1 20.2299 1 19.4805V17.0014C1 16.8878 1 16.8309 1.01483 16.7946C1.04649 16.717 1.11611 16.6702 1.19986 16.6702C1.23911 16.6701 1.29425 16.6926 1.40453 16.7375C2.69148 17.2619 4.30971 17.54 6.1212 17.6588H6.12122C6.30171 17.6706 6.39195 17.6765 6.44597 17.7342ZM10.5767 9.19449C11.8836 8.7421 13.6243 8.48047 15.5 8.48047C17.3757 8.48047 19.1164 8.7421 20.4233 9.19449C21.072 9.41904 21.6685 9.70918 22.1225 10.0808C22.5692 10.4464 23 10.9985 23 11.7307V14.3613C23 14.8141 23 15.0405 22.8754 15.2661C22.7509 15.4917 22.5966 15.5888 22.288 15.7831C20.7751 16.7357 18.4419 17.2303 15.5001 17.2303C12.5583 17.2303 10.2251 16.7357 8.71216 15.7831C8.40346 15.5888 8.24911 15.4916 8.12455 15.266C8 15.0404 8 14.814 8 14.3612V11.7305C8 10.9982 8.43077 10.4464 8.87746 10.0808C9.33153 9.70918 9.928 9.41904 10.5767 9.19449ZM10.1441 11.6285C10.3479 11.4618 10.7033 11.2671 11.2309 11.0845C12.2765 10.7225 13.7859 10.4805 15.5 10.4805C17.2141 10.4805 18.7235 10.7225 19.7691 11.0845C20.2967 11.2671 20.6521 11.4618 20.8559 11.6285C20.9217 11.6824 20.9217 11.7785 20.8559 11.8324C20.6521 11.9992 20.2967 12.1939 19.7691 12.3765C18.7235 12.7384 17.2141 12.9805 15.5 12.9805C13.7859 12.9805 12.2765 12.7384 11.2309 12.3765C10.7033 12.1939 10.3479 11.9992 10.1441 11.8324C10.0783 11.7785 10.0783 11.6824 10.1441 11.6285ZM22.6917 17.285C20.8565 18.292 18.348 18.7303 15.5001 18.7303C12.6521 18.7303 10.1436 18.292 8.30826 17.2849L8.30826 17.2849C8.16817 17.208 8.09812 17.1696 8.04906 17.1986C8 17.2276 8 17.306 8 17.4628V20.2807C8 21.0156 8.44147 21.5621 8.88601 21.9178C9.34016 22.2812 9.93591 22.5645 10.5832 22.7835C11.8879 23.2251 13.6262 23.4807 15.5 23.4807C17.3738 23.4807 19.1121 23.2251 20.4168 22.7835C21.0641 22.5645 21.6598 22.2812 22.114 21.9178C22.5585 21.5621 23 21.0156 23 20.2807V17.4629C23 17.3061 23 17.2277 22.9509 17.1987C22.9019 17.1697 22.8318 17.2081 22.6917 17.285Z" fill="#10BC83"/>
</svg>
