<svg width="270" height="48" viewBox="0 0 270 48" fill="none" xmlns="http://www.w3.org/2000/svg">
<path d="M40.0116 28.766C40.9592 27.2515 41.8224 25.4282 42.6012 23.2962C43.7137 20.2503 44.1626 17.4013 43.9479 14.749C43.7332 12.0967 42.9158 9.83439 41.4957 7.962C40.0896 6.05153 38.182 4.67389 35.7729 3.82906C33.325 2.97061 31.0417 2.9215 28.9231 3.68175C26.7656 4.42837 24.8034 5.78035 23.0364 7.73769C21.9882 6.16748 20.7399 4.78483 19.2916 3.58973C17.8433 2.39464 16.2838 1.50413 14.613 0.918199C11.388 -0.21278 8.57032 -0.298958 6.16004 0.659665C3.71091 1.60466 1.92313 3.61911 0.796711 6.70301C-0.287988 9.67269 -0.265097 12.7301 0.865382 15.8754C1.99586 19.0206 4.11185 22.1678 7.21333 25.3171C10.7279 28.4913 21.3216 35.8718 35.5795 40L36.8624 36.4878L29.4187 34.0062C23.5682 31.7827 18.841 29.2444 15.2368 26.3914C11.6077 23.4866 9.13895 20.6451 7.83055 17.867C6.4972 15.0372 6.19905 12.6133 6.93609 10.5955C7.36719 9.41523 8.02978 8.68123 8.92387 8.39348C9.83187 8.06766 11.0435 8.17047 12.5589 8.70189C13.7246 9.11068 14.9318 9.70582 16.1805 10.4873C17.4042 11.2171 18.5279 12.0407 19.5517 12.9581C18.9263 14.0702 18.3077 15.4639 17.6958 17.1391C16.9309 19.2331 16.7798 21.0269 17.2424 22.5206C17.68 23.9625 18.6371 24.9424 20.1136 25.4602C21.3181 25.8826 22.4231 25.7977 23.4284 25.2053C24.3949 24.5994 25.1354 23.592 25.6499 22.1834C26.6234 19.5183 26.6185 16.5315 25.6352 13.2232C26.8046 12.3018 28.0265 11.6566 29.301 11.2875C30.5366 10.9048 31.7566 10.9246 32.9612 11.347C34.6708 11.9466 35.8138 13.0776 36.3901 14.74C36.9803 16.3643 36.8025 18.4709 35.8569 21.0598C35.2728 22.6589 34.5959 24.0321 33.8262 25.1795C33.0175 26.3133 31.9993 27.4809 30.7715 28.6824L36.6274 32.9909C37.9747 31.7024 39.1027 30.2941 40.0116 28.766Z" fill="#FFDEBE"/>
<path d="M220.397 37.6719C217.997 37.6719 215.997 37.2399 214.397 36.3759C212.829 35.4799 211.613 33.9759 210.749 31.8639C209.885 29.7199 209.453 26.8239 209.453 23.1758V17.5599L204.173 17.2719V12.1839L209.453 12.4719V7.04785H215.261V12.5679H235.845C239.077 12.5679 242.869 12.4399 247.221 12.1839V17.2719C242.869 17.5279 239.077 17.6559 235.845 17.6559H215.261V23.2239C215.261 26.6798 215.693 29.1439 216.557 30.6159C217.421 32.0879 218.781 32.8239 220.637 32.8239C221.981 32.8239 223.021 32.4559 223.757 31.7199C224.493 30.9519 224.861 29.9439 224.861 28.6959C224.861 26.2639 223.597 24.1359 221.069 22.3119L225.005 19.0959C226.829 20.4399 228.237 21.9439 229.229 23.6079C230.253 25.2719 230.765 26.9839 230.765 28.7439C230.765 31.4639 229.837 33.6399 227.981 35.2719C226.157 36.8719 223.629 37.6719 220.397 37.6719Z" fill="#FFDEBE"/>
<path d="M238.611 36.3759C240.211 37.2399 242.211 37.6719 244.611 37.6719C247.843 37.6719 250.371 36.8719 252.195 35.2719C254.051 33.6399 254.979 31.4639 254.979 28.7439C254.979 26.9839 254.467 25.2719 253.443 23.6079C252.451 21.9439 251.043 20.4399 249.219 19.0959L245.283 22.3119C247.811 24.1359 249.075 26.2639 249.075 28.6959C249.075 29.9439 248.707 30.9519 247.971 31.7199C247.235 32.4559 246.195 32.8239 244.851 32.8239C242.995 32.8239 241.635 32.0879 240.771 30.6159C239.907 29.1439 239.475 26.6798 239.475 23.2239V17.6559V12.5679V7.04785H233.667V12.4719V17.5599V23.1758C233.667 26.8239 234.099 29.7199 234.963 31.8639C235.827 33.9759 237.043 35.4799 238.611 36.3759Z" fill="#FFDEBE"/>
<path d="M197.133 37.6721C194.637 37.6721 192.813 36.9201 191.661 35.4161C190.509 33.8801 189.933 31.4961 189.933 28.2641C189.933 26.2481 190.125 23.9761 190.509 21.4481C190.893 18.9201 191.533 15.8321 192.429 12.1841H198.333C197.469 15.7681 196.829 18.8401 196.413 21.4001C196.029 23.9281 195.837 26.1841 195.837 28.1681C195.837 29.8641 195.933 31.0641 196.125 31.7681C196.349 32.4721 196.749 32.8241 197.325 32.8241C197.901 32.8241 198.301 32.5841 198.525 32.1041C198.781 31.5921 198.909 30.7601 198.909 29.6081C198.909 28.5201 198.797 27.5121 198.573 26.5841C198.349 25.6561 197.997 24.6481 197.517 23.5601L202.317 21.8321C203.885 24.2961 204.669 26.8721 204.669 29.5601C204.669 32.1521 203.981 34.1521 202.605 35.5601C201.229 36.9681 199.405 37.6721 197.133 37.6721ZM196.125 9.06409C195.101 9.06409 194.221 8.74409 193.485 8.10409C192.781 7.46409 192.429 6.66409 192.429 5.70409C192.429 4.77609 192.781 3.99209 193.485 3.35209C194.221 2.71209 195.101 2.39209 196.125 2.39209C197.213 2.39209 198.109 2.71209 198.813 3.35209C199.549 3.99209 199.917 4.77609 199.917 5.70409C199.917 6.66409 199.549 7.46409 198.813 8.10409C198.109 8.74409 197.213 9.06409 196.125 9.06409Z" fill="#FFDEBE"/>
<path d="M163.462 47.2717C161.318 47.2717 159.654 46.6477 158.47 45.3997C157.286 44.1837 156.694 42.2637 156.694 39.6397C156.694 36.3757 157.366 33.0157 158.71 29.5597C160.086 26.1037 161.894 22.9517 164.134 20.1037C163.558 17.3517 162.918 14.7117 162.214 12.1837H167.926L168.598 15.5437C170.134 14.2637 171.718 13.2717 173.35 12.5677C175.014 11.8637 176.63 11.5117 178.198 11.5117C181.398 11.5117 183.958 12.6317 185.878 14.8717C187.798 17.0797 188.758 20.2157 188.758 24.2797C188.758 26.8717 188.262 29.1917 187.27 31.2397C186.278 33.2557 184.902 34.8397 183.142 35.9917C181.414 37.1117 179.462 37.6717 177.286 37.6717C176.326 37.6717 175.366 37.5437 174.406 37.2877C173.446 37.0637 172.662 36.7917 172.054 36.4717L173.158 31.7677C174.502 32.4717 175.782 32.8237 176.998 32.8237C178.822 32.8237 180.246 32.0717 181.27 30.5677C182.326 29.0317 182.854 26.9517 182.854 24.3277C182.854 21.7997 182.406 19.8477 181.51 18.4717C180.646 17.0637 179.318 16.3597 177.526 16.3597C176.214 16.3597 174.87 16.7277 173.494 17.4637C172.118 18.1997 170.79 19.2237 169.51 20.5357C170.374 25.6557 170.806 30.2157 170.806 34.2157C170.806 38.6637 170.23 41.9437 169.078 44.0557C167.958 46.1997 166.086 47.2717 163.462 47.2717ZM161.782 39.6397C161.782 41.4957 162.342 42.4237 163.462 42.4237C164.294 42.4237 164.87 41.8157 165.19 40.5997C165.542 39.4157 165.718 37.3197 165.718 34.3117C165.718 31.5597 165.542 28.9517 165.19 26.4877C164.134 28.5357 163.302 30.6957 162.694 32.9677C162.086 35.2077 161.782 37.4317 161.782 39.6397Z" fill="#FFDEBE"/>
<path d="M146.971 37.6721C145.275 37.6721 143.787 37.1281 142.507 36.0401C141.227 34.952 140.235 33.4641 139.531 31.576C138.859 29.688 138.523 27.592 138.523 25.288C138.523 21.16 138.923 17.352 139.723 13.864C140.555 10.376 141.819 7.57605 143.515 5.46405C145.243 3.32005 147.403 2.24805 149.995 2.24805C152.235 2.24805 154.075 2.87205 155.515 4.12005C156.955 5.36805 157.675 7.12805 157.675 9.40005C157.675 12.952 156.539 16.584 154.267 20.296C151.995 24.008 148.907 27.304 145.003 30.184C145.579 31.944 146.363 32.824 147.355 32.824C149.147 32.824 150.939 31.208 152.731 27.976L156.283 31C154.971 33.272 153.547 34.952 152.011 36.0401C150.507 37.1281 148.827 37.6721 146.971 37.6721ZM144.379 24.232C146.747 21.992 148.571 19.576 149.851 16.984C151.131 14.36 151.771 11.88 151.771 9.54405C151.771 8.71205 151.595 8.10405 151.243 7.72005C150.891 7.30405 150.411 7.09605 149.803 7.09605C148.811 7.09605 147.899 7.89605 147.067 9.49605C146.267 11.096 145.627 13.224 145.147 15.88C144.667 18.504 144.411 21.288 144.379 24.232Z" fill="#FFDEBE"/>
<path d="M124.971 37.6721C123.275 37.6721 121.787 37.1281 120.507 36.0401C119.227 34.952 118.235 33.4641 117.531 31.576C116.859 29.688 116.523 27.592 116.523 25.288C116.523 21.16 116.923 17.352 117.723 13.864C118.555 10.376 119.819 7.57605 121.515 5.46405C123.243 3.32005 125.403 2.24805 127.995 2.24805C130.235 2.24805 132.075 2.87205 133.515 4.12005C134.955 5.36805 135.675 7.12805 135.675 9.40005C135.675 12.952 134.539 16.584 132.267 20.296C129.995 24.008 126.907 27.304 123.003 30.184C123.579 31.944 124.363 32.824 125.355 32.824C127.147 32.824 128.939 31.208 130.731 27.976L134.283 31C132.971 33.272 131.547 34.952 130.011 36.0401C128.507 37.1281 126.827 37.6721 124.971 37.6721ZM122.379 24.232C124.747 21.992 126.571 19.576 127.851 16.984C129.131 14.36 129.771 11.88 129.771 9.54405C129.771 8.71205 129.595 8.10405 129.243 7.72005C128.891 7.30405 128.411 7.09605 127.803 7.09605C126.811 7.09605 125.899 7.89605 125.067 9.49605C124.267 11.096 123.627 13.224 123.147 15.88C122.667 18.504 122.411 21.288 122.379 24.232Z" fill="#FFDEBE"/>
<path d="M95.4666 37.6722C92.4906 37.6722 90.2826 37.0482 88.8426 35.8002C87.4026 34.5202 86.6826 32.6962 86.6826 30.3282C86.6826 28.0242 87.5306 26.2322 89.2266 24.9522C90.9226 23.6402 93.3386 22.9842 96.4746 22.9842C99.8026 22.9842 102.715 23.6082 105.211 24.8562C105.339 24.3122 105.403 23.6882 105.403 22.9842C105.403 20.8402 104.811 19.2082 103.627 18.0882C102.443 16.9362 100.651 16.3602 98.2506 16.3602C96.5866 16.3602 95.3066 16.7282 94.4106 17.4642C93.5146 18.2002 93.0666 19.1762 93.0666 20.3922C93.0666 20.5842 93.0986 20.8722 93.1626 21.2562L87.9306 21.9282C87.8346 21.3522 87.7866 20.7762 87.7866 20.2002C87.7866 17.5122 88.7466 15.4002 90.6666 13.8642C92.5866 12.2962 95.2426 11.5122 98.6346 11.5122C102.699 11.5122 105.819 12.4882 107.995 14.4402C110.203 16.3602 111.307 19.1602 111.307 22.8402C111.307 24.7282 110.859 26.6002 109.963 28.4562C111.723 30.5362 113.003 33.0642 113.803 36.0402L109.099 37.6722C108.651 35.9122 107.931 34.2642 106.939 32.7282C105.403 34.2642 103.643 35.4802 101.659 36.3762C99.6746 37.2402 97.6106 37.6722 95.4666 37.6722ZM92.5866 30.2802C92.5866 31.0482 92.8586 31.6722 93.4026 32.1522C93.9786 32.6002 94.7946 32.8242 95.8506 32.8242C97.3866 32.8242 98.7946 32.5042 100.075 31.8642C101.355 31.2242 102.411 30.3442 103.243 29.2242C101.227 28.0722 98.9226 27.4962 96.3306 27.4962C95.0826 27.4962 94.1386 27.7522 93.4986 28.2642C92.8906 28.7442 92.5866 29.4162 92.5866 30.2802Z" fill="#FFDEBE"/>
<path d="M73.0754 37.6721C71.7314 37.6721 70.4194 37.4481 69.1394 37C67.8914 36.584 66.7714 36.056 65.7794 35.416L67.6034 31.0961C69.4594 32.2481 71.2514 32.824 72.9794 32.824C74.2594 32.824 75.3954 32.4081 76.3874 31.576C77.3794 30.712 78.1634 29.48 78.7394 27.88C79.3154 26.248 79.6034 24.3601 79.6034 22.216C79.6034 20.264 79.2514 18.808 78.5474 17.848C77.8434 16.856 76.8514 16.36 75.5714 16.36C73.9714 16.36 72.3554 17.224 70.7234 18.952C69.0914 20.68 67.6514 23.112 66.4034 26.248C65.1554 29.384 64.3074 32.9681 63.8594 37H58.0994C57.9394 34.2481 57.8594 31.288 57.8594 28.12C57.8594 20.536 58.5954 12.296 60.0674 3.40005L65.9234 2.24805C64.6754 10.024 63.9554 17.016 63.7634 23.224C65.0754 19.544 66.8194 16.68 68.9954 14.632C71.2034 12.552 73.6994 11.512 76.4834 11.512C79.2994 11.512 81.5074 12.472 83.1074 14.392C84.7074 16.312 85.5074 18.92 85.5074 22.216C85.5074 25.064 84.9474 27.672 83.8274 30.04C82.7394 32.408 81.2354 34.28 79.3154 35.656C77.4274 37 75.3474 37.6721 73.0754 37.6721Z" fill="#FFDEBE"/>
</svg>
