<svg width="24" height="25" viewBox="0 0 24 25" fill="none" xmlns="http://www.w3.org/2000/svg">
<path fill-rule="evenodd" clip-rule="evenodd" d="M12.123 1.73127C12.585 1.73177 13.001 1.73223 13.347 1.76324C13.912 1.81378 14.444 1.98623 14.9 2.32638C15.237 2.57795 15.471 2.88589 15.671 3.2194C15.857 3.52845 16.044 3.91377 16.256 4.35087L16.682 5.23047L21 5.23117C21.552 5.23117 22 5.67889 22 6.23117C22 6.78346 21.552 7.23117 21 7.23117H20.128L19.582 16.1369C19.506 17.3901 19.445 18.3846 19.32 19.1789C19.192 19.9936 18.987 20.672 18.578 21.2654C18.203 21.8083 17.72 22.2665 17.161 22.6108C16.549 22.9872 15.866 23.1518 15.053 23.2305H8.927C8.114 23.1515 7.42999 22.9866 6.81799 22.6095C6.25799 22.2646 5.77499 21.8056 5.39999 21.2618C4.99099 20.6674 4.787 19.988 4.66 19.1722C4.536 18.3767 4.476 17.3808 4.401 16.1258L3.87 7.23117H3C2.448 7.23117 2 6.78346 2 6.23117C2 5.67889 2.448 5.23117 3 5.23117L7.41 5.23047L7.76601 4.45063C7.97201 3.99743 8.15401 3.59829 8.33701 3.27801C8.53401 2.93254 8.76699 2.61284 9.10899 2.35093C9.56999 1.99673 10.112 1.81716 10.69 1.76456C11.083 1.72873 11.48 1.72978 11.875 1.73082L12.123 1.73127ZM9.5 10.9414C9.086 10.9414 8.75 11.2772 8.75 11.6914V17.6914C8.75 18.1057 9.086 18.4414 9.5 18.4414C9.914 18.4414 10.25 18.1057 10.25 17.6914V11.6914C10.25 11.2772 9.914 10.9414 9.5 10.9414ZM14.5 10.9414C14.086 10.9414 13.75 11.2772 13.75 11.6914V17.6914C13.75 18.1057 14.086 18.4414 14.5 18.4414C14.914 18.4414 15.25 18.1057 15.25 17.6914V11.6914C15.25 11.2772 14.914 10.9414 14.5 10.9414ZM12.2273 3.73125L12.035 3.73117C11.484 3.73117 11.137 3.73213 10.871 3.75632C10.497 3.79038 10.264 3.93615 10.074 4.26913C9.94901 4.48723 9.814 4.77914 9.608 5.23047H14.459C14.233 4.76348 14.088 4.46743 13.957 4.24867C13.764 3.92834 13.534 3.78792 13.169 3.75529C12.9424 3.735 12.6553 3.73175 12.2273 3.73125Z" fill="#EF4949"/>
</svg>
