<svg width="156" height="121" viewBox="0 0 156 121" fill="none" xmlns="http://www.w3.org/2000/svg">
<path fill-rule="evenodd" clip-rule="evenodd" d="M84.3832 0.480469C70.2785 0.480469 57.3147 5.36974 47.0783 13.5499H30.5345C28.3851 13.5499 26.6265 15.3143 26.6265 17.4707C26.6265 19.6272 28.3851 21.3916 30.5345 21.3916H38.9541H41.4214C43.5708 21.3916 45.3294 23.1559 45.3294 25.3124C45.3294 26.3893 44.8891 27.3721 44.1804 28.0805C43.4744 28.7915 42.4948 29.2332 41.4214 29.2332H36.1576H33.2511H19.071C16.9217 29.2332 15.1631 30.9976 15.1631 33.154C15.1631 35.3105 16.9217 37.0749 19.071 37.0749H29.2224C26.1581 44.3002 24.4607 52.2503 24.4607 60.5999C24.4607 63.6294 24.6847 66.6066 25.1146 69.5158C25.2944 70.7313 25.5106 71.9363 25.7634 73.1282C33.1364 71.9964 40.9576 71.0868 49.1227 70.4228L49.7376 70.9848L50.316 70.3287C60.125 69.5629 70.4213 69.1551 81.0406 69.1551C103.603 69.1551 124.716 70.9953 142.769 74.1947C143.464 71.1678 143.933 68.0547 144.155 64.8709C144.256 63.4594 144.306 62.0349 144.306 60.5999C144.306 27.3957 117.479 0.480469 84.3832 0.480469Z" fill="#F4F4F5"/>
<path fill-rule="evenodd" clip-rule="evenodd" d="M7.20437 29.0518H4.83603C2.65876 29.0518 0.87735 30.8518 0.87735 33.0518C0.87735 35.2518 2.65876 37.0517 4.83603 37.0517H7.20437C9.38165 37.0517 11.1631 35.2518 11.1631 33.0518C11.1631 30.8518 9.38165 29.0518 7.20437 29.0518Z" fill="#F4F4F5"/>
<mask id="mask0_258_14818" style="mask-type:luminance" maskUnits="userSpaceOnUse" x="25" y="69" width="131" height="52">
<path fill-rule="evenodd" clip-rule="evenodd" d="M155.123 69.2412V120.48H90.4023H25.682V69.2412H155.123Z" fill="white"/>
</mask>
<g mask="url(#mask0_258_14818)">
<path fill-rule="evenodd" clip-rule="evenodd" d="M155.123 89.0516C155.123 91.1944 153.364 92.9477 151.216 92.9477H126.26C125.187 92.9477 124.207 93.3866 123.502 94.0931C122.793 94.797 122.353 95.7737 122.353 96.8438C122.353 98.9866 124.111 100.74 126.26 100.74H130.896C131.969 100.74 132.949 101.179 133.655 101.885C134.363 102.589 134.803 103.566 134.803 104.636C134.803 106.779 133.045 108.532 130.896 108.532H120.235C110.22 116.033 97.7749 120.48 84.2878 120.48C55.4824 120.48 31.4254 100.207 25.682 73.1893C33.0533 72.0646 40.8726 71.1607 49.0358 70.5009L49.6502 71.0594L50.2287 70.4074C60.0352 69.6464 70.3292 69.2412 80.946 69.2412C103.502 69.2412 124.611 71.0698 142.659 74.249C141.781 78.036 140.542 81.6828 138.979 85.1555H151.216C152.291 85.1555 153.266 85.5944 153.974 86.3009C154.682 87.0048 155.123 87.9815 155.123 89.0516Z" fill="#F4F4F5"/>
</g>
<path fill-rule="evenodd" clip-rule="evenodd" d="M143.734 64.6929C143.513 67.9373 143.045 71.1098 142.35 74.1943C124.322 70.9339 103.236 69.059 80.704 69.059C70.0988 69.059 59.8162 69.4742 50.0202 70.2547L56.8136 62.3835L67.3817 69.2798L81.6875 65.3298L106.298 69.059L116.982 65.3298L119.688 69.059L126.144 64.267L132.177 69.7965L141.692 62.1943L143.734 64.6929Z" fill="#DFDFE2"/>
<path fill-rule="evenodd" clip-rule="evenodd" d="M50.0202 70.1943L49.4659 70.7658L48.8773 70.2763C49.2563 70.2467 49.6384 70.2194 50.0202 70.1943Z" fill="#F4F4F5"/>
<path fill-rule="evenodd" clip-rule="evenodd" d="M48.8773 70.3423C40.715 71.0073 32.8964 71.9184 25.5258 73.052C25.2732 71.8582 25.057 70.6512 24.8773 69.4338L37.5112 59.9092L48.8773 70.3423Z" fill="#DFDFE2"/>
<g filter="url(#filter0_d_258_14818)">
<path d="M84.0444 29.6171L84.0446 29.6171C84.1893 29.6168 84.3327 29.6451 84.4665 29.7003C84.6003 29.7555 84.7219 29.8366 84.8243 29.9389C84.9268 30.0411 85.0081 30.1626 85.0635 30.2963C85.119 30.43 85.1475 30.5734 85.1475 30.7181V32.5398V32.9398H85.5475H89.2841H89.6841V32.5398V30.7181C89.6841 29.9769 89.5379 29.243 89.254 28.5584C88.9701 27.8738 88.554 27.2519 88.0294 26.7283C87.5049 26.2046 86.8822 25.7896 86.1971 25.5068L86.0445 25.8766L86.1971 25.5068C85.5126 25.2243 84.7791 25.0794 84.0386 25.0805C84.0386 25.0805 84.0385 25.0805 84.0384 25.0805L84.0379 25.0805C82.5439 25.082 81.1115 25.6761 80.0551 26.7326C78.9985 27.7892 78.4043 29.2219 78.403 30.7161V30.7165L78.403 32.6097L78.403 33.0097H78.803H82.5396H82.9396V32.6097L82.9396 30.7196C82.9396 30.7195 82.9396 30.7193 82.9396 30.7192C82.9401 30.4271 83.0563 30.147 83.2629 29.9404C83.4697 29.7336 83.7501 29.6173 84.0426 29.6171L84.0428 29.6171L84.0444 29.6171Z" fill="white" stroke="#DFDFE2" stroke-width="0.8"/>
<g filter="url(#filter1_i_258_14818)">
<g clip-path="url(#clip0_258_14818)">
<path d="M84.2701 93.6688C92.0145 93.6688 98.2925 87.3908 98.2925 79.6464C98.2925 71.9021 92.0145 65.624 84.2701 65.624C76.5258 65.624 70.2477 71.9021 70.2477 79.6464C70.2477 87.3908 76.5258 93.6688 84.2701 93.6688Z" fill="white"/>
</g>
<path d="M70.0002 79.0805H69.6002V79.4805C69.6002 87.4334 76.0473 93.8805 84.0002 93.8805C91.9531 93.8805 98.4002 87.4334 98.4002 79.4805V79.0805H98.0002H70.0002Z" stroke="#DFDFE2" stroke-width="0.8"/>
</g>
<path d="M106.795 64.1868V64.1872C106.793 66.5847 107.47 68.9337 108.748 70.9624C110.026 72.9911 111.852 74.6166 114.015 75.6507C114.593 75.9271 115.082 76.3617 115.424 76.9043C115.766 77.4468 115.947 78.0751 115.947 78.7164C115.947 78.7165 115.947 78.7165 115.947 78.7165L115.947 78.774L115.947 78.7747M106.795 64.1868L52.9899 78.7747C52.9895 78.9797 53.0296 79.1828 53.1078 79.3723C53.186 79.5619 53.3008 79.7341 53.4456 79.8792C53.5904 80.0243 53.7625 80.1394 53.9518 80.218C54.1412 80.2965 54.3442 80.337 54.5493 80.337H113.988C114.193 80.337 114.396 80.2965 114.585 80.218C114.775 80.1394 114.947 80.0243 115.091 79.8792C115.236 79.7341 115.351 79.5619 115.429 79.3723C115.507 79.1828 115.548 78.9797 115.547 78.7747H115.947M106.795 64.1868V53.4289C106.795 47.4548 104.422 41.7255 100.198 37.5012C95.9734 33.2769 90.244 30.9037 84.27 30.9037C78.296 30.9037 72.5666 33.2769 68.3423 37.5012C64.118 41.7255 61.7448 47.4548 61.7448 53.4289V64.1868C61.7451 66.583 61.0673 68.9302 59.7897 70.9572C58.5122 72.9843 56.6871 74.6085 54.5254 75.642L106.795 64.1868ZM115.947 78.7747C115.948 79.0321 115.897 79.287 115.799 79.5249C115.701 79.763 115.557 79.9795 115.375 80.1618C115.193 80.3441 114.976 80.4888 114.738 80.5875C114.501 80.6862 114.245 80.737 113.988 80.737H54.5493C54.2916 80.737 54.0366 80.6862 53.7986 80.5875C53.5606 80.4888 53.3445 80.3441 53.1625 80.1618C52.9805 79.9795 52.8363 79.763 52.738 79.5249C52.6398 79.2869 52.5895 79.0318 52.5899 78.7744M115.947 78.7747L52.5899 78.7744M52.5899 78.7744V78.7169V78.7164H52.9899C52.9883 78.1488 53.148 77.5924 53.4504 77.1119C53.7528 76.6315 54.1854 76.2469 54.6979 76.0029L52.5899 78.7744Z" fill="white" stroke="#DFDFE2" stroke-width="0.8"/>
</g>
<path fill-rule="evenodd" clip-rule="evenodd" d="M142.591 108.48C140.391 108.48 138.591 106.68 138.591 104.48C138.591 102.28 140.391 100.48 142.591 100.48C144.791 100.48 146.591 102.28 146.591 104.48C146.591 106.68 144.791 108.48 142.591 108.48Z" fill="#DFDFE2"/>
<defs>
<filter id="filter0_d_258_14818" x="44.1899" y="20.6807" width="80.1573" height="85.5996" filterUnits="userSpaceOnUse" color-interpolation-filters="sRGB">
<feFlood flood-opacity="0" result="BackgroundImageFix"/>
<feColorMatrix in="SourceAlpha" type="matrix" values="0 0 0 0 0 0 0 0 0 0 0 0 0 0 0 0 0 0 127 0" result="hardAlpha"/>
<feOffset dy="4"/>
<feGaussianBlur stdDeviation="4"/>
<feComposite in2="hardAlpha" operator="out"/>
<feColorMatrix type="matrix" values="0 0 0 0 0.376471 0 0 0 0 0.376471 0 0 0 0 0.423529 0 0 0 0.2 0"/>
<feBlend mode="normal" in2="BackgroundImageFix" result="effect1_dropShadow_258_14818"/>
<feBlend mode="normal" in="SourceGraphic" in2="effect1_dropShadow_258_14818" result="shape"/>
</filter>
<filter id="filter1_i_258_14818" x="69.2001" y="78.6807" width="29.6" height="15.5996" filterUnits="userSpaceOnUse" color-interpolation-filters="sRGB">
<feFlood flood-opacity="0" result="BackgroundImageFix"/>
<feBlend mode="normal" in="SourceGraphic" in2="BackgroundImageFix" result="shape"/>
<feColorMatrix in="SourceAlpha" type="matrix" values="0 0 0 0 0 0 0 0 0 0 0 0 0 0 0 0 0 0 127 0" result="hardAlpha"/>
<feOffset dy="3"/>
<feComposite in2="hardAlpha" operator="arithmetic" k2="-1" k3="1"/>
<feColorMatrix type="matrix" values="0 0 0 0 0.376471 0 0 0 0 0.376471 0 0 0 0 0.423529 0 0 0 0.4 0"/>
<feBlend mode="normal" in2="shape" result="effect1_innerShadow_258_14818"/>
</filter>
<clipPath id="clip0_258_14818">
<path d="M70.0002 79.4805H98.0002C98.0002 87.2125 91.7321 93.4805 84.0002 93.4805C76.2682 93.4805 70.0002 87.2125 70.0002 79.4805Z" fill="white"/>
</clipPath>
</defs>
</svg>
