<svg width="28" height="29" viewBox="0 0 28 29" fill="none" xmlns="http://www.w3.org/2000/svg">
<path d="M4.83572 4.39482C8.31352 2.26153 11.4335 3.11173 13.3183 4.52718C13.6283 4.76004 13.8411 4.9194 13.9996 5.02702C14.158 4.9194 14.3708 4.76004 14.6809 4.52718C16.5657 3.11173 19.6856 2.26153 23.1634 4.39482C25.5682 5.86991 26.9213 8.95117 26.4465 12.4914C25.9694 16.0488 23.6669 20.0722 18.7907 23.6814C17.0974 24.9354 15.8546 25.8558 13.9996 25.8558C12.1445 25.8558 10.9017 24.9354 9.20845 23.6814C4.33224 20.0722 2.02973 16.0488 1.55262 12.4914C1.0778 8.95117 2.43094 5.86991 4.83572 4.39482Z" fill="#A9A9B2"/>
</svg>
