<svg width="24" height="25" viewBox="0 0 24 25" fill="none" xmlns="http://www.w3.org/2000/svg">
<path fill-rule="evenodd" clip-rule="evenodd" d="M13 2.73047C13 2.17818 12.5523 1.73047 12 1.73047C11.4477 1.73047 11 2.17818 11 2.73047V10.7305C11 11.2828 11.4477 11.7305 12 11.7305C12.5523 11.7305 13 11.2828 13 10.7305V2.73047ZM7.68756 7.01376C8.13597 6.71624 8.25778 6.11231 7.95964 5.66483C7.6615 5.21736 7.0563 5.0958 6.60789 5.39332C3.98323 7.13479 2.25 10.1156 2.25 13.5008C2.25 18.8743 6.61522 23.2305 12 23.2305C17.3848 23.2305 21.75 18.8743 21.75 13.5008C21.75 10.1156 20.0168 7.13479 17.3921 5.39332C16.9437 5.0958 16.3385 5.21736 16.0404 5.66483C15.7422 6.11231 15.864 6.71624 16.3124 7.01376C18.4166 8.40988 19.8 10.7943 19.8 13.5008C19.8 17.7996 16.3078 21.2845 12 21.2845C7.69218 21.2845 4.2 17.7996 4.2 13.5008C4.2 10.7943 5.58339 8.40988 7.68756 7.01376Z" fill="#EF9649"/>
</svg>
