<svg width="24" height="25" viewBox="0 0 24 25" fill="none" xmlns="http://www.w3.org/2000/svg">
<path fill-rule="evenodd" clip-rule="evenodd" d="M13.056 1.73047C14.894 1.73047 16.35 1.73047 17.489 1.88047C18.661 2.04047 19.61 2.37051 20.359 3.12051C21.107 3.87051 21.439 4.82043 21.597 5.99043C21.75 7.13043 21.75 8.59051 21.75 10.4205V14.5404C21.75 16.3704 21.75 17.8305 21.597 18.9705C21.439 20.1405 21.107 21.0904 20.359 21.8404C19.61 22.5904 18.661 22.9205 17.489 23.0805C16.35 23.2305 14.894 23.2305 13.056 23.2305H10.944C9.10599 23.2305 7.64999 23.2305 6.51099 23.0805C5.33899 22.9205 4.39002 22.5904 3.64102 21.8404C2.89302 21.0904 2.56098 20.1405 2.40298 18.9705C2.24998 17.8305 2.25 16.3704 2.25 14.5404L2.25 10.4205C2.25 8.59051 2.24998 7.13043 2.40298 5.99043C2.56098 4.82043 2.89302 3.87051 3.64102 3.12051C4.39002 2.37051 5.33899 2.04047 6.51099 1.88047C7.64999 1.73047 9.10599 1.73047 10.944 1.73047L13.056 1.73047ZM12.93 13.8705C13.223 14.1605 13.698 14.1605 13.99 13.8705L16.53 11.3305C16.823 11.0405 16.823 10.5605 16.53 10.2705C16.367 10.1105 16.148 10.0405 15.935 10.0505C15.857 10.0605 15.777 10.0405 15.727 9.98047C15.684 9.92047 15.638 9.87045 15.59 9.81045C15.184 9.33045 14.636 8.69043 14.086 8.14043C13.535 7.59043 12.905 7.05043 12.418 6.64043C12.361 6.59043 12.306 6.55049 12.253 6.50049C12.193 6.45049 12.169 6.37043 12.176 6.29043C12.194 6.08043 12.122 5.86049 11.959 5.70049C11.666 5.41049 11.191 5.41049 10.898 5.70049L8.35801 8.24043C8.06501 8.53043 8.06501 9.01049 8.35801 9.30049C8.52101 9.46049 8.73998 9.54051 8.95298 9.52051C9.03098 9.51051 9.11199 9.53043 9.16099 9.59043C9.20499 9.65043 9.251 9.70045 9.298 9.76045C9.499 10.0004 9.73401 10.2804 9.98701 10.5604C10.058 10.6404 10.056 10.7604 9.97998 10.8404L7.54302 13.2705C7.15202 13.6605 7.15202 14.3004 7.54302 14.6904C7.93302 15.0804 8.56698 15.0804 8.95698 14.6904L11.394 12.2505C11.47 12.1705 11.591 12.1704 11.67 12.2404C11.954 12.5004 12.23 12.7305 12.47 12.9305C12.527 12.9805 12.583 13.0205 12.635 13.0705C12.696 13.1205 12.72 13.2005 12.713 13.2805C12.695 13.4905 12.767 13.7105 12.93 13.8705ZM8 17.4805C7.448 17.4805 7 17.9305 7 18.4805C7 19.0305 7.448 19.4805 8 19.4805L16 19.4805C16.552 19.4805 17 19.0305 17 18.4805C17 17.9305 16.552 17.4805 16 17.4805L8 17.4805Z" fill="#020203"/>
</svg>
