<svg width="24" height="25" viewBox="0 0 24 25" fill="none" xmlns="http://www.w3.org/2000/svg">
<path fill-rule="evenodd" clip-rule="evenodd" d="M17.312 2.41106C15.9686 2.23045 14.2479 2.23046 12.0572 2.23047H11.9428C9.75212 2.23046 8.03144 2.23045 6.68802 2.41106C5.31137 2.59615 4.21911 2.98318 3.36091 3.84138C2.50272 4.69958 2.11568 5.79184 1.93059 7.16849C1.74998 8.51191 1.74999 10.2326 1.75 12.4233V12.5376C1.74999 14.7283 1.74998 16.449 1.93059 17.7924C2.11568 19.1691 2.50272 20.2614 3.36091 21.1196C4.21911 21.9778 5.31137 22.3648 6.68802 22.5499C8.03144 22.7305 9.7521 22.7305 11.9428 22.7305H11.9428H12.0572H12.0572C14.2479 22.7305 15.9686 22.7305 17.312 22.5499C18.6886 22.3648 19.7809 21.9778 20.6391 21.1196C21.4973 20.2614 21.8843 19.1691 22.0694 17.7924C22.25 16.449 22.25 14.7284 22.25 12.5377V12.5376V12.4233V12.4233C22.25 10.2326 22.25 8.5119 22.0694 7.16849C21.8843 5.79184 21.4973 4.69958 20.6391 3.84138C19.7809 2.98318 18.6886 2.59615 17.312 2.41106ZM11.9915 6.73047C10.1956 6.73047 8.73797 8.18454 8.73797 9.98047C8.73797 11.7764 10.1956 13.2305 11.9915 13.2305C13.7874 13.2305 15.2451 11.7764 15.2451 9.98047C15.2451 8.18454 13.7874 6.73047 11.9915 6.73047ZM6.95754 16.9626C6.6715 17.2621 6.68249 17.7369 6.98208 18.0229C7.12736 18.1616 7.31383 18.2305 7.5 18.2305H16.5C16.6818 18.2305 16.8641 18.1649 17.0083 18.032C17.3129 17.7513 17.3322 17.2768 17.0515 16.9722C14.3841 14.078 9.57054 14.2258 6.95754 16.9626Z" fill="#5B49EF"/>
</svg>
