<svg width="28" height="29" viewBox="0 0 28 29" fill="none" xmlns="http://www.w3.org/2000/svg">
<path fill-rule="evenodd" clip-rule="evenodd" d="M13.7084 1.93945C10.3257 1.93945 7.58347 4.6817 7.58347 8.06445C7.58347 11.4472 10.3257 14.1895 13.7084 14.1895C17.0912 14.1895 19.8334 11.4472 19.8334 8.06445C19.8334 4.6817 17.0912 1.93945 13.7084 1.93945ZM20.9708 18.071C20.783 17.965 20.617 17.8713 20.4824 17.7912C16.336 15.3222 11.0811 15.3222 6.93472 17.7912C6.79903 17.8719 6.63139 17.9666 6.44162 18.0737C5.61 18.5428 4.35291 19.252 3.49171 20.0949C2.9531 20.6221 2.44134 21.3169 2.3483 22.1681C2.24936 23.0732 2.64423 23.9226 3.43642 24.6773C4.80311 25.9793 6.44319 27.0228 8.56455 27.0228H18.8526C20.9739 27.0228 22.614 25.9793 23.9806 24.6773C24.7728 23.9226 25.1677 23.0732 25.0688 22.1681C24.9757 21.3169 24.464 20.6221 23.9254 20.0949C23.0641 19.252 21.807 18.5428 20.9754 18.0737L20.9708 18.071Z" fill="#5B49EF"/>
</svg>
