<svg width="24" height="25" viewBox="0 0 24 25" fill="none" xmlns="http://www.w3.org/2000/svg">
<path fill-rule="evenodd" clip-rule="evenodd" d="M5 4.51618C5 2.97768 6.24721 1.73047 7.78571 1.73047H8.14286C9.71476 1.73047 11.1123 2.47717 12 3.63521C12.8877 2.47717 14.2852 1.73047 15.8571 1.73047H16.2143C17.7528 1.73047 19 2.97767 19 4.51618C19 5.32844 18.7702 6.08702 18.3721 6.73047H18.527C18.9713 6.73046 19.3447 6.73045 19.6492 6.75253C19.9652 6.77544 20.2721 6.8253 20.5645 6.96036C20.8957 7.11332 21.1916 7.34281 21.4072 7.64157C21.6109 7.92386 21.687 8.22796 21.7201 8.52008C21.7501 8.78453 21.75 9.10162 21.75 9.44449V9.51645C21.75 9.85931 21.7501 10.1764 21.7201 10.4409C21.687 10.733 21.6109 11.0371 21.4072 11.3194C21.1916 11.6181 20.8957 11.8476 20.5645 12.0006C20.2721 12.1356 19.9652 12.1855 19.6492 12.2084C19.3447 12.2305 18.9713 12.2305 18.5269 12.2305H5.47308C5.0287 12.2305 4.6553 12.2305 4.35082 12.2084C4.03479 12.1855 3.72793 12.1356 3.43552 12.0006C3.10434 11.8476 2.80841 11.6181 2.5928 11.3194C2.38907 11.0371 2.31299 10.733 2.27989 10.4409C2.24993 10.1764 2.24997 9.85931 2.25 9.51644V9.4445C2.24997 9.10163 2.24993 8.78453 2.27989 8.52008C2.31299 8.22796 2.38907 7.92386 2.5928 7.64157C2.80841 7.34281 3.10434 7.11332 3.43552 6.96036C3.72793 6.8253 4.03479 6.77544 4.35082 6.75253C4.65529 6.73045 5.02869 6.73046 5.47306 6.73047H5.62791C5.22979 6.08702 5 5.32844 5 4.51618ZM9.21429 6.73047H11V6.58761C11 5.00966 9.72081 3.73047 8.14286 3.73047H7.78571C7.35178 3.73047 7 4.08225 7 4.51618C7 5.7391 7.99137 6.73047 9.21429 6.73047ZM13 6.73047H14.7857C16.0086 6.73047 17 5.7391 17 4.51618C17 4.08225 16.6482 3.73047 16.2143 3.73047H15.8571C14.2792 3.73047 13 5.00966 13 6.58761V6.73047ZM13.4 13.4791C13.2114 13.4791 13.1172 13.4791 13.0586 13.5376C13 13.5962 13 13.6905 13 13.8791V23.1733C13 23.2041 13.025 23.2291 13.0557 23.2291H13.0558C14.6584 23.2291 15.9373 23.2291 16.9404 23.0942C17.9767 22.9549 18.8301 22.6594 19.5052 21.9843C20.1803 21.3091 20.4758 20.4557 20.6152 19.4195C20.75 18.4164 20.75 17.1374 20.75 15.5348V13.8204C20.75 13.5747 20.75 13.4519 20.6791 13.392C20.6083 13.3321 20.4766 13.3543 20.2132 13.3986C20.0444 13.4271 19.8849 13.4432 19.7396 13.4537C19.3894 13.4791 18.9776 13.4791 18.5609 13.4791H13.4ZM3.78678 13.3986C3.52341 13.3543 3.39172 13.3321 3.32086 13.392C3.25 13.4519 3.25 13.5747 3.25 13.8204V15.5348C3.24998 17.1374 3.24997 18.4164 3.38483 19.4195C3.52415 20.4557 3.81966 21.3091 4.4948 21.9843C5.16994 22.6594 6.02335 22.9549 7.05961 23.0942C8.06269 23.2291 9.34164 23.2291 10.9442 23.2291H10.9443C10.975 23.2291 11 23.2041 11 23.1733V13.8791C11 13.6905 11 13.5962 10.9414 13.5376C10.8828 13.4791 10.7886 13.4791 10.6 13.4791H5.43911C5.02245 13.4791 4.61055 13.4791 4.26041 13.4537C4.11504 13.4432 3.95558 13.4271 3.78678 13.3986Z" fill="#A9A9B2"/>
</svg>
