<svg width="28" height="29" viewBox="0 0 28 29" fill="none" xmlns="http://www.w3.org/2000/svg">
<path fill-rule="evenodd" clip-rule="evenodd" d="M12.8333 1.64648C6.39001 1.64648 1.16666 6.86983 1.16666 13.3132C1.16666 19.7565 6.39001 24.9798 12.8333 24.9798C15.6348 24.9798 18.2057 23.9924 20.2168 22.3466L24.8417 26.9714C25.2973 27.4271 26.036 27.4271 26.4916 26.9714C26.9472 26.5158 26.9472 25.7771 26.4916 25.3215L21.8668 20.6967C23.5126 18.6855 24.5 16.1146 24.5 13.3132C24.5 6.86983 19.2767 1.64648 12.8333 1.64648ZM3.49999 13.3132C3.49999 8.15849 7.67867 3.97982 12.8333 3.97982C17.988 3.97982 22.1667 8.15849 22.1667 13.3132C22.1667 18.4678 17.988 22.6465 12.8333 22.6465C7.67867 22.6465 3.49999 18.4678 3.49999 13.3132Z" fill="#A9A9B2"/>
</svg>
