<svg width="28" height="29" viewBox="0 0 28 29" fill="none" xmlns="http://www.w3.org/2000/svg">
<path fill-rule="evenodd" clip-rule="evenodd" d="M1.45833 14.4811C1.45833 7.55455 7.07342 1.93945 14 1.93945C20.9266 1.93945 26.5417 7.55455 26.5417 14.4811C26.5417 21.4077 20.9266 27.0228 14 27.0228C7.07342 27.0228 1.45833 21.4077 1.45833 14.4811ZM14.4683 10.1621L17.8748 9.02655C18.9088 8.6819 19.4258 8.50958 19.6986 8.78247C19.9715 9.05536 19.7992 9.57233 19.4546 10.6063L18.319 14.0129C17.7317 15.7747 17.4381 16.6557 16.8063 17.2875C16.1746 17.9192 15.2936 18.2129 13.5317 18.8002L10.1252 19.9357C9.09121 20.2803 8.57423 20.4527 8.30134 20.1798C8.02845 19.9069 8.20078 19.3899 8.54542 18.356L9.68095 14.9494C10.2682 13.1875 10.5619 12.3065 11.1937 11.6748C11.8254 11.043 12.7064 10.7494 14.4683 10.1621ZM14.826 13.6551C15.2802 14.1093 15.2802 14.8456 14.826 15.2998L14.8186 15.3072C14.3645 15.7613 13.6281 15.7613 13.174 15.3072C12.7198 14.853 12.7198 14.1166 13.174 13.6625L13.1813 13.6551C13.6355 13.2009 14.3719 13.2009 14.826 13.6551Z" fill="#A9A9B2"/>
</svg>
